HIERARCHY
ROOT Hips
{
 OFFSET 0.000000 0.000000 0.000000
 CHANNELS 6 Xposition Yposition Zposition Yrotation Xrotation Zrotation
 JOINT Chest
 {
  OFFSET 0.000000 9.585900 0.002600
  CHANNELS 3 Yrotation Xrotation Zrotation
  JOINT Chest2
  {
   OFFSET 0.000000 9.601200 -0.005300
   CHANNELS 3 Yrotation Xrotation Zrotation
   JOINT Chest3
   {
    OFFSET 0.000000 9.561800 0.000000
    CHANNELS 3 Yrotation Xrotation Zrotation
    JOINT Chest4
    {
     OFFSET 0.000000 9.552100 0.000000
     CHANNELS 3 Yrotation Xrotation Zrotation
     JOINT Neck
     {
      OFFSET 0.000000 14.453000 0.000000
      CHANNELS 3 Yrotation Xrotation Zrotation
      JOINT Head
      {
       OFFSET 0.000000 8.936500 -0.011300
       CHANNELS 3 Yrotation Xrotation Zrotation
       End Site
       {
        OFFSET 0.000000 17.073600 -0.006000
       }
      }
     }
     JOINT RightCollar
     {
      OFFSET -2.921100 9.558500 0.000000
      CHANNELS 3 Yrotation Xrotation Zrotation
      JOINT RightShoulder
      {
       OFFSET -13.519700 0.000000 0.000000
       CHANNELS 3 Yrotation Xrotation Zrotation
       JOINT RightElbow
       {
        OFFSET 0.000000 -29.696600 0.000000
        CHANNELS 3 Yrotation Xrotation Zrotation
        JOINT RightWrist
        {
         OFFSET 0.000000 -24.004700 0.000000
         CHANNELS 3 Yrotation Xrotation Zrotation
         End Site
         {
          OFFSET 0.000000 -17.728500 0.000000
         }
        }
       }
      }
     }
     JOINT LeftCollar
     {
      OFFSET 2.921100 9.558500 0.000000
      CHANNELS 3 Yrotation Xrotation Zrotation
      JOINT LeftShoulder
      {
       OFFSET 13.519700 0.000000 0.000000
       CHANNELS 3 Yrotation Xrotation Zrotation
       JOINT LeftElbow
       {
        OFFSET 0.000000 -29.696600 0.000000
        CHANNELS 3 Yrotation Xrotation Zrotation
        JOINT LeftWrist
        {
         OFFSET 0.000000 -24.004700 0.000000
         CHANNELS 3 Yrotation Xrotation Zrotation
         End Site
         {
          OFFSET 0.000000 -17.728500 0.000000
         }
        }
       }
      }
     }
    }
   }
  }
 }
 JOINT RightHip
 {
  OFFSET -7.771700 -0.012900 -0.001300
  CHANNELS 3 Yrotation Xrotation Zrotation
  JOINT RightKnee
  {
   OFFSET 0.000000 -40.869800 0.001200
   CHANNELS 3 Yrotation Xrotation Zrotation
   JOINT RightAnkle
   {
    OFFSET 0.000000 -39.717900 0.002100
    CHANNELS 3 Yrotation Xrotation Zrotation
    JOINT RightToe
    {
     OFFSET 0.000000 -4.965400 11.033500
     CHANNELS 3 Yrotation Xrotation Zrotation
     End Site
     {
      OFFSET 0.000000 -1.423100 5.872300
     }
    }
   }
  }
 }
 JOINT LeftHip
 {
  OFFSET 7.771700 -0.012900 -0.001300
  CHANNELS 3 Yrotation Xrotation Zrotation
  JOINT LeftKnee
  {
   OFFSET 0.000000 -40.869800 0.001200
   CHANNELS 3 Yrotation Xrotation Zrotation
   JOINT LeftAnkle
   {
    OFFSET 0.000000 -39.717900 0.002100
    CHANNELS 3 Yrotation Xrotation Zrotation
    JOINT LeftToe
    {
     OFFSET 0.000000 -4.965400 11.033500
     CHANNELS 3 Yrotation Xrotation Zrotation
     End Site
     {
      OFFSET 0.000000 -1.423100 5.872300
     }
    }
   }
  }
 }
}
MOTION
Frames: 9
Frame Time: 0.008333
0.000000 85.388000 0.000000 0.000000 -5.767877 0.000000 0.000000 11.653817 0.000000 0.000000 -5.885947 0.000000 0.000000 -0.000000 0.000000 0.000000 -0.000000 0.000000 0.000000 12.528835 0.000000 0.000000 0.711642 0.000000 0.000000 -0.000000 0.000000 0.000000 0.000000 -90.000000 0.000000 -2.309062 0.000000 0.000000 2.309062 0.000000 0.000000 -0.000000 0.000000 0.000000 -0.000000 90.000000 0.000000 -2.309062 0.000000 0.000000 2.309062 0.000000 0.000000 8.520406 0.000000 0.000000 1.905762 0.000000 -0.000000 -4.658285 0.000000 0.000000 -0.000000 0.000000 0.000000 8.520406 0.000000 0.000000 1.905762 0.000000 -0.000000 -4.658285 0.000000 0.000000 -0.000000 0.000000
-22.248879 62.248586 12.025118 177.836071 -50.652511 -0.568000 4.213216 27.765692 1.384391 0.602902 4.973441 0.194443 1.000220 7.741616 0.334602 3.084090 22.425204 1.392980 8.406967 19.922630 2.870008 14.459005 1.281734 2.711277 2.720066 5.002022 0.217465 -13.712353 -17.150779 -6.769568 -128.561689 -54.220920 159.260885 14.206147 6.590075 3.632102 -9.973535 -0.073243 4.033878 -5.265002 -24.820219 9.236485 143.695116 -69.524311 -163.780983 10.968523 0.760697 -12.842357 2.261426 -16.225586 -6.990932 -1.807710 62.021408 -5.665176 1.283807 -8.756321 10.555654 0.188800 -0.650983 -0.003417 -5.220012 -13.260237 -0.014383 28.283317 75.773032 29.173776 1.444847 -11.419395 -4.163639 0.234050 0.587868 0.102150
-22.236995 62.237805 12.007399 177.838074 -50.593371 -0.587899 4.226478 27.697011 1.404345 0.611430 4.942470 0.195962 0.997402 7.703641 0.334343 3.092674 22.382383 1.399081 8.256665 19.881624 2.880173 14.183179 1.197418 2.770346 2.560568 5.080375 0.208693 -13.613807 -17.067746 -6.760950 -128.549456 -54.041500 159.426869 13.918320 6.164421 3.124090 -9.956112 0.007677 4.034423 -4.909428 -24.465360 9.348538 144.839222 -68.824446 -164.941351 11.246938 0.217056 -12.528696 2.235221 -16.306835 -6.990835 -1.794968 62.069246 -5.633899 1.308231 -8.765427 10.548218 0.166237 -0.640453 0.004036 -5.226410 -13.326906 0.031068 28.341299 75.827069 29.222783 1.456016 -11.473251 -4.159998 0.226064 0.607340 0.099806
-22.221587 62.228016 11.984281 177.851082 -50.547474 -0.629233 4.239581 27.640805 1.439633 0.625005 4.877496 0.195537 0.983926 7.696915 0.334049 3.098593 22.337147 1.402840 8.105733 19.830686 2.885353 13.907728 1.095417 2.819831 2.403495 5.163467 0.203519 -13.528642 -16.959784 -6.755766 -128.460501 -53.847974 159.573709 13.624245 5.726793 2.560801 -9.921094 0.092801 4.041398 -4.593918 -24.103338 9.487821 145.819365 -68.156824 -165.919205 11.539679 -0.295626 -12.213665 2.199667 -16.368809 -6.977166 -1.790788 62.115512 -5.604253 1.340951 -8.786068 10.526592 0.152998 -0.634902 0.007217 -5.241652 -13.383428 0.108010 28.346573 75.899070 29.212175 1.453131 -11.510403 -4.166119 0.217166 0.597324 0.114451
-22.206543 62.217779 11.957934 177.863465 -50.502874 -0.663130 4.253350 27.577581 1.466665 0.617176 4.883627 0.197122 0.980765 7.627951 0.329217 3.102239 22.290363 1.404795 7.955847 19.770179 2.885858 13.635753 0.976317 2.859966 2.250722 5.245527 0.204294 -13.417887 -16.873365 -6.765391 -128.260712 -53.673569 159.626850 13.337297 5.286699 1.959993 -9.875884 0.195935 4.050115 -4.311550 -23.752084 9.658629 146.549432 -67.533306 -166.642308 11.818716 -0.759053 -11.918767 2.168318 -16.427766 -6.969808 -1.786151 62.163888 -5.575141 1.368095 -8.812207 10.506860 0.145630 -0.630328 0.007236 -5.257160 -13.437747 0.176509 28.355033 75.972416 29.205107 1.443499 -11.552881 -4.166917 0.276709 0.593793 0.122775
-22.196714 62.211045 11.926123 177.907716 -50.488788 -0.688113 4.220733 27.552583 1.450418 0.615920 4.856128 0.196518 0.976137 7.590599 0.330860 3.105045 22.243396 1.407100 7.806431 19.700208 2.882017 13.366098 0.840329 2.891590 2.098462 5.325651 0.204795 -13.267423 -16.805553 -6.794344 -127.982360 -53.514598 159.594896 13.056437 4.855242 1.332876 -9.815833 0.306473 4.060565 -4.072826 -23.406724 9.855081 147.010757 -66.966222 -167.101439 12.058438 -1.176155 -11.649952 2.128547 -16.457364 -7.005776 -1.770561 62.233952 -5.521925 1.376204 -8.839203 10.480488 0.167569 -0.649928 -0.000574 -5.285641 -13.460260 0.200906 28.359825 76.032458 29.197000 1.421486 -11.579768 -4.161127 0.285169 0.579921 0.125369
-22.190840 62.196573 11.899386 177.936781 -50.416817 -0.680233 4.182230 27.471346 1.406321 0.614027 4.829205 0.196531 0.972943 7.574648 0.332360 3.104225 22.180411 1.409437 7.657919 19.620950 2.875205 13.099049 0.687725 2.917186 1.945260 5.406457 0.200240 -13.002271 -16.733153 -6.880253 -127.725547 -53.344870 159.491415 12.782109 4.439313 0.694177 -9.743772 0.421430 4.071619 -3.871004 -23.064453 10.066142 147.254611 -66.461225 -167.359828 12.268364 -1.556390 -11.404735 2.109372 -16.543154 -7.051647 -1.761830 62.288047 -5.500130 1.371037 -8.872302 10.479916 0.169936 -0.629663 0.000305 -5.300695 -13.540387 0.195205 28.360546 76.066705 29.194372 1.406882 -11.608023 -4.152257 0.278652 0.588470 0.119319
-22.166773 62.187690 11.868910 177.912068 -50.387170 -0.742083 4.230883 27.431140 1.487371 0.607722 4.788566 0.196028 0.971768 7.553844 0.333933 3.105232 22.134730 1.412654 7.512519 19.533378 2.866335 12.838421 0.520125 2.937770 1.793311 5.490422 0.188442 -12.743028 -16.689775 -6.938952 -127.406383 -53.220298 159.349635 12.506963 4.036745 0.061993 -9.697410 0.533373 4.065145 -3.649852 -22.712412 10.299391 147.329285 -66.012864 -167.485515 12.469351 -1.901338 -11.174014 2.099537 -16.592844 -6.968197 -1.781659 62.338757 -5.505475 1.392084 -8.857448 10.499437 0.153684 -0.653595 -0.021261 -5.311625 -13.577152 0.318764 28.415818 76.175675 29.228907 1.451108 -11.680590 -4.153244 0.281231 0.584447 0.119352
-22.147094 62.174531 11.842499 177.895947 -50.322972 -0.789924 4.259517 27.360194 1.544088 0.610864 4.776868 0.196639 0.954037 7.491914 0.331790 3.107974 22.107018 1.417362 7.370462 19.437753 2.854740 12.584728 0.338076 2.952041 1.642407 5.573412 0.166567 -12.458133 -16.650106 -6.997925 -127.067963 -53.123068 159.176844 12.222935 3.641716 -0.551505 -9.579006 0.647218 4.088421 -3.468782 -22.368795 10.503992 147.250817 -65.614654 -167.508593 12.661177 -2.210319 -10.940476 2.084348 -16.672855 -6.910835 -1.777221 62.381233 -5.495794 1.429133 -8.891967 10.507942 0.109034 -0.597200 -0.016274 -5.327575 -13.647353 0.423108 28.423364 76.261546 29.222181 1.461983 -11.721135 -4.140075 0.250256 0.566683 0.105595
